# Blender v2.79 (sub 0) OBJ File: ''
# www.blender.org
mtllib INDI_ARROW.mtl
o Cone
v -0.337554 -2.181101 -0.349199
v 0.000537 0.001500 0.000018
v -0.166341 -2.183547 -0.444645
v 0.019727 -2.176488 -0.505946
v 0.213503 -2.160197 -0.530749
v 0.407537 -2.135298 -0.518100
v 0.594375 -2.102748 -0.468484
v 0.766836 -2.063800 -0.383810
v 0.918291 -2.019948 -0.267329
v 1.042922 -1.972879 -0.123520
v 1.135938 -1.924401 0.042092
v 1.193765 -1.876377 0.223143
v 1.214181 -1.830654 0.412674
v 1.196400 -1.788986 0.603402
v 1.141106 -1.752977 0.787997
v 1.050425 -1.724010 0.959366
v 0.927841 -1.703199 1.110923
v 0.778065 -1.691341 1.236844
v 0.606853 -1.688895 1.332288
v 0.420784 -1.695954 1.393591
v 0.227008 -1.712245 1.418393
v 0.032973 -1.737144 1.405744
v -0.153865 -1.769693 1.356128
v -0.326325 -1.808642 1.271453
v -0.477781 -1.852494 1.154973
v -0.602410 -1.899563 1.011163
v -0.695427 -1.948041 0.845551
v -0.753253 -1.996065 0.664500
v -0.773668 -2.041789 0.474969
v -0.755888 -2.083456 0.284242
v -0.700594 -2.119465 0.099645
v -0.609913 -2.148432 -0.071723
v -0.487329 -2.169243 -0.223280
vn -0.4737 0.2102 -0.8552
vn -0.3130 0.2123 -0.9257
vn -0.1422 0.2228 -0.9644
vn 0.0323 0.2413 -0.9699
vn 0.2036 0.2672 -0.9419
vn 0.3652 0.2993 -0.8815
vn 0.5109 0.3366 -0.7910
vn 0.6351 0.3775 -0.6739
vn 0.7330 0.4204 -0.5348
vn 0.8008 0.4639 -0.3788
vn 0.8360 0.5060 -0.2121
vn 0.8372 0.5453 -0.0411
vn 0.8043 0.5803 0.1277
vn 0.7387 0.6095 0.2879
vn 0.6428 0.6319 0.4331
vn 0.5202 0.6466 0.5579
vn 0.3759 0.6530 0.6575
vn 0.2152 0.6509 0.7280
vn 0.0443 0.6404 0.7667
vn -0.1301 0.6219 0.7722
vn -0.3015 0.5961 0.7442
vn -0.4631 0.5639 0.6838
vn -0.6088 0.5267 0.5933
vn -0.7330 0.4858 0.4762
vn -0.8309 0.4428 0.3370
vn -0.8987 0.3994 0.1811
vn -0.9339 0.3572 0.0144
vn -0.9351 0.3179 -0.1566
vn -0.9022 0.2830 -0.3254
vn -0.8366 0.2537 -0.4856
vn -0.7406 0.2313 -0.6308
vn -0.6181 0.2167 -0.7556
vn 0.1099 -0.9689 0.2219
vn 0.1098 -0.9689 0.2219
usemtl None
s 1
f 1//1 2//1 3//1
f 3//2 2//2 4//2
f 4//3 2//3 5//3
f 5//4 2//4 6//4
f 6//5 2//5 7//5
f 7//6 2//6 8//6
f 8//7 2//7 9//7
f 9//8 2//8 10//8
f 10//9 2//9 11//9
f 11//10 2//10 12//10
f 12//11 2//11 13//11
f 13//12 2//12 14//12
f 14//13 2//13 15//13
f 15//14 2//14 16//14
f 16//15 2//15 17//15
f 17//16 2//16 18//16
f 18//17 2//17 19//17
f 19//18 2//18 20//18
f 20//19 2//19 21//19
f 21//20 2//20 22//20
f 22//21 2//21 23//21
f 23//22 2//22 24//22
f 24//23 2//23 25//23
f 25//24 2//24 26//24
f 26//25 2//25 27//25
f 27//26 2//26 28//26
f 28//27 2//27 29//27
f 29//28 2//28 30//28
f 30//29 2//29 31//29
f 31//30 2//30 32//30
f 32//31 2//31 33//31
f 33//32 2//32 1//32
f 9//33 17//33 25//33
f 33//33 1//33 3//33
f 3//33 4//33 5//33
f 5//33 6//33 9//33
f 6//33 7//33 9//33
f 7//33 8//34 9//33
f 9//33 10//33 13//33
f 10//33 11//33 13//33
f 11//33 12//33 13//33
f 13//33 14//33 17//33
f 14//33 15//33 17//33
f 15//33 16//33 17//33
f 17//33 18//33 19//33
f 19//33 20//33 17//33
f 20//33 21//33 17//33
f 21//33 22//33 23//33
f 23//33 24//33 25//33
f 25//33 26//33 29//33
f 26//33 27//33 29//33
f 27//33 28//33 29//33
f 29//33 30//33 33//33
f 30//33 31//33 33//33
f 31//33 32//33 33//33
f 33//33 3//33 9//33
f 3//33 5//33 9//33
f 21//33 23//33 17//33
f 23//33 25//33 17//33
f 9//33 13//33 17//33
f 25//33 29//33 33//33
f 33//33 9//33 25//33
